<?xml version="1.0" encoding="UTF-8"?>
<svg xmlns="http://www.w3.org/2000/svg" xmlns:xlink="http://www.w3.org/1999/xlink" width="24px" height="24px" viewBox="0 0 24 24" version="1.1">
<g id="surface1">
<path style="fill-rule:nonzero;fill:rgb(0%,0%,0%);fill-opacity:1;stroke-width:1;stroke-linecap:butt;stroke-linejoin:miter;stroke:rgb(100%,100%,100%);stroke-opacity:1;stroke-miterlimit:10;" d="M 1168.18879 1056.478884 L 511.785774 1056.478884 C 456.632706 1056.478884 411.803857 1011.862644 411.803857 956.864009 L 411.803857 300.247651 C 411.803857 245.249016 456.632706 200.632776 511.785774 200.632776 L 1168.18879 200.632776 C 1223.341857 200.632776 1267.899016 245.249016 1267.899016 300.247651 L 1267.899016 956.864009 C 1267.899016 1011.862644 1223.341857 1056.478884 1168.18879 1056.478884 Z M 1168.18879 1056.478884 " transform="matrix(0.0143776,0,0,0.0139208,0.00503011,3.5)"/>
<path style=" stroke:none;fill-rule:nonzero;fill:rgb(100%,100%,100%);fill-opacity:1;" d="M 7.816406 8.367188 L 11.125 12.652344 L 7.796875 16.132812 L 8.546875 16.132812 L 11.460938 13.082031 L 13.816406 16.132812 L 16.363281 16.132812 L 12.871094 11.609375 L 15.96875 8.367188 L 15.21875 8.367188 L 12.535156 11.175781 L 10.367188 8.367188 Z M 8.917969 8.902344 L 10.089844 8.902344 L 15.261719 15.597656 L 14.09375 15.597656 Z M 8.917969 8.902344 "/>
</g>
</svg>
