<?xml version="1.0" encoding="UTF-8"?>
<svg xmlns="http://www.w3.org/2000/svg" xmlns:xlink="http://www.w3.org/1999/xlink" width="24px" height="24px" viewBox="0 0 24 17" version="1.1">
<g id="surface1">
<path style="fill-rule:nonzero;fill:rgb(0%,0%,0%);fill-opacity:1;stroke-width:1;stroke-linecap:butt;stroke-linejoin:miter;stroke:rgb(100%,100%,100%);stroke-opacity:1;stroke-miterlimit:10;" d="M 1168.186281 1056.475264 L 511.784675 1056.475264 C 456.631725 1056.475264 411.802973 1011.859177 411.802973 956.860731 L 411.802973 300.246622 C 411.802973 245.248176 456.631725 200.632089 511.784675 200.632089 L 1168.186281 200.632089 C 1223.33923 200.632089 1267.896293 245.248176 1267.896293 300.246622 L 1267.896293 956.860731 C 1267.896293 1011.859177 1223.33923 1056.475264 1168.186281 1056.475264 Z M 1168.186281 1056.475264 " transform="matrix(0.0143776,0,0,0.0139208,0.00503011,0)"/>
<path style=" stroke:none;fill-rule:nonzero;fill:rgb(100%,100%,100%);fill-opacity:1;" d="M 7.816406 4.867188 L 11.125 9.152344 L 7.796875 12.632812 L 8.546875 12.632812 L 11.460938 9.582031 L 13.816406 12.632812 L 16.363281 12.632812 L 12.871094 8.109375 L 15.96875 4.867188 L 15.21875 4.867188 L 12.535156 7.675781 L 10.367188 4.867188 Z M 8.917969 5.402344 L 10.089844 5.402344 L 15.261719 12.097656 L 14.09375 12.097656 Z M 8.917969 5.402344 "/>
</g>
</svg>
